<?xml version="1.0" encoding="UTF-8"?>
<svg xmlns="http://www.w3.org/2000/svg" xmlns:xlink="http://www.w3.org/1999/xlink" width="240px" height="75px" viewBox="0 0 640 199" version="1.1">
  <title>Oracle-Cerner-Stacked</title>
  <defs>
    <polygon id="path-1" points="0 0 638.878783 0 638.878783 83.0250066 0 83.0250066"></polygon>
    <polygon id="path-3" points="0 0 66.161718 0 66.161718 74.722799 0 74.722799"></polygon>
  </defs>
  <g id="Page-1" stroke="none" stroke-width="1" fill="none" fill-rule="evenodd">
    <g id="flywire-oracle-cerner-together" transform="translate(-974.000000, -100.000000)">
      <g id="Partnership-Module" transform="translate(50.000000, 0.000000)">
        <g id="Oracle-Cerner-Stacked" transform="translate(924.000000, 100.000000)">
          <g id="Group-3" transform="translate(1.121217, 0.000000)">
            <mask id="mask-2" fill="white">
              <use xlink:href="#path-1"></use>
            </mask>
            <g id="Clip-2"></g>
            <path d="M581.82803,68.5541796 C569.640113,68.5541796 559.364602,60.3753704 556.192192,49.1889278 L623.807273,49.1889278 L633.124953,34.6928676 L556.192192,34.6928676 C559.352385,23.4811919 569.640113,15.3268019 581.82803,15.3268019 L628.251904,15.3268019 L637.532118,0.793298909 L580.770017,0.793298909 C558.067946,0.793298909 539.646795,19.2021314 539.646795,41.9404907 C539.646795,64.6536169 558.067946,83.0250066 580.770017,83.0250066 L629.599058,83.0250066 L638.879272,68.5541796 L581.82803,68.5541796 L581.82803,68.5541796 Z M388.337119,83.0250066 L437.166161,83.0250066 L446.408094,68.5541796 L389.420381,68.5541796 C374.65137,68.5541796 362.752595,56.6123693 362.752595,41.9404907 C362.752595,27.2051222 374.65137,15.3268019 389.420381,15.3268019 L435.806789,15.3268019 L445.161936,0.793298909 L388.337119,0.793298909 C365.597582,0.793298909 347.125933,19.2021314 347.125933,41.9404907 C347.125933,64.6536169 365.597582,83.0250066 388.337119,83.0250066 L388.337119,83.0250066 Z M87.8932519,68.5541796 L42.2121854,68.5541796 C27.512405,68.5541796 15.6005981,56.6123693 15.6005981,41.9404907 C15.6005981,27.2051222 27.512405,15.3268019 42.2121854,15.3268019 L87.8932519,15.3268019 C102.644345,15.3268019 114.54312,27.2051222 114.54312,41.9404907 C114.54312,56.6123693 102.644345,68.5541796 87.8932519,68.5541796 L87.8932519,68.5541796 Z M41.161503,83.0250066 L88.9887309,83.0250066 C111.7413,83.0250066 130.061455,64.6536169 130.061455,41.9404907 C130.061455,19.2021314 111.7413,0.793298909 88.9887309,0.793298909 L41.161503,0.793298909 C18.4341828,0.793298909 0,19.2021314 0,41.9404907 C0,64.6536169 18.4341828,83.0250066 41.161503,83.0250066 L41.161503,83.0250066 Z M207.724807,56.3991081 C223.129929,56.3991081 235.516579,43.9412385 235.516579,28.5896917 C235.516579,13.237331 223.129929,0.793298909 207.724807,0.793298909 L138.497865,0.793298909 L138.497865,83.0250066 L154.319188,83.0250066 L154.319188,15.3268019 L206.67331,15.3268019 C214.020757,15.3268019 219.976253,21.2533455 219.976253,28.5896917 C219.976253,35.9130144 214.020757,41.9404907 206.67331,41.9404907 L162.055957,41.902234 L209.311419,83.0250066 L232.268423,83.0250066 L200.528854,56.3991081 L207.724807,56.3991081 L207.724807,56.3991081 Z M469.463651,68.5037132 L469.463651,0.793298909 L453.610563,0.793298909 L453.610563,75.1603913 C453.610563,77.1863722 454.466584,79.1749103 455.953015,80.6091322 C457.46388,82.1695201 459.54081,83.0250066 461.719551,83.0250066 L533.805326,83.0250066 L543.197938,68.5037132 L469.463651,68.5037132 L469.463651,68.5037132 Z M275.809029,54.0328862 L318.015513,54.0328862 L295.715797,18.0698938 L254.781534,83.0250066 L236.083459,83.0250066 L285.920015,5.07073146 C288.048258,1.91251295 291.699583,-0.000325589539 295.690548,-0.000325589539 C299.594362,-0.000325589539 303.182158,1.84983696 305.310401,4.93235591 L355.297636,83.0250066 L336.650059,83.0250066 L327.861792,68.5037132 L285.126709,68.5037132 L275.809029,54.0328862 Z" id="Fill-1" fill="#C74634" mask="url(#mask-2)"></path>
          </g>
          <path d="M90.4583017,154.057737 C97.0295466,154.057737 101.155715,158.792622 102.072008,165.77896 L78.5122866,165.77896 C79.7503,158.685992 83.965247,154.057737 90.4583017,154.057737 L90.4583017,154.057737 Z M109.992036,185.219911 L92.1947784,185.219911 C85.2048894,185.219911 80.2674964,182.641242 78.7216086,175.544204 L117.098396,175.544204 C117.205093,174.105098 117.305274,172.669248 117.305274,171.432822 C117.305274,155.801268 108.870493,141.504632 90.4583017,141.504632 C74.3975209,141.504632 63.1829111,154.459026 63.1829111,170.194768 L63.1829111,170.408029 C63.1829111,187.270311 75.4213254,198.88816 91.9984881,198.88816 L101.146756,198.88816 L109.992036,185.219911 Z" id="Fill-4" fill="#312D2A"></path>
          <path d="M125.656408,142.532355 L141.30669,142.532355 L141.30669,153.648796 C144.496203,146.031629 149.642918,141.098133 158.884851,141.504306 L158.884851,157.857855 L158.077699,157.857855 C147.684088,157.857855 141.30669,164.134407 141.30669,177.290666 L141.30669,197.657106 L125.656408,197.657106 L125.656408,142.532355 Z" id="Fill-6" fill="#312D2A"></path>
          <path d="M253.394226,154.057737 C259.979317,154.057737 264.104671,158.792622 265.019335,165.77896 L241.46613,165.77896 C242.687853,158.685992 246.916647,154.057737 253.394226,154.057737 L253.394226,154.057737 Z M272.947508,185.219911 L255.146178,185.219911 C248.135927,185.219911 243.211566,182.641242 241.663234,175.544204 L280.044909,175.544204 C280.143461,174.105098 280.250158,172.669248 280.250158,171.432822 C280.250158,155.801268 271.815377,141.504632 253.394226,141.504632 C237.344848,141.504632 226.128609,154.459026 226.128609,170.194768 L226.128609,170.408029 C226.128609,187.270311 238.368653,198.88816 254.934413,198.88816 L264.094083,198.88816 L272.947508,185.219911 Z" id="Fill-8" fill="#312D2A"></path>
          <path d="M288.605527,142.532355 L304.257438,142.532355 L304.257438,153.648796 C307.438806,146.031629 312.589594,141.098133 321.840486,141.504306 L321.840486,157.857855 L321.011343,157.857855 C310.620175,157.857855 304.257438,164.134407 304.257438,177.290666 L304.257438,197.657106 L288.605527,197.657106 L288.605527,142.532355 Z" id="Fill-10" fill="#312D2A"></path>
          <path d="M182.888466,197.65735 L167.247143,197.65735 L167.247143,142.532599 L182.888466,142.532599 L182.888466,150.363028 C186.497438,145.726633 191.117997,141.50455 199.048613,141.50455 C210.885488,141.50455 217.771123,149.330095 217.771123,161.977621 L217.771123,197.65735 L202.13876,197.65735 L202.13876,166.902162 C202.13876,159.502326 198.634042,155.705138 192.66307,155.705138 C186.700244,155.705138 182.888466,159.502326 182.888466,166.902162 L182.888466,197.65735 Z" id="Fill-12" fill="#312D2A"></path>
          <g id="Group-16" transform="translate(0.000000, 124.277201)">
            <mask id="mask-4" fill="white">
              <use xlink:href="#path-3"></use>
            </mask>
            <g id="Clip-15"></g>
            <path d="M42.9473373,60.0842933 L58.7116465,60.0842933 L49.2107079,74.722799 L39.9296796,74.722799 L35.953376,74.6503553 C15.245158,74.0830155 -0.000325793007,57.9134251 -0.000325793007,37.5469855 L-0.000325793007,37.3402362 C-0.000325793007,16.8118158 15.4846158,0 37.6678617,0 C51.30067,0 59.4544545,4.53953213 66.161718,11.1441159 L56.0393293,22.7912677 C50.4723413,17.7470717 44.7994706,14.6490873 37.5693093,14.6490873 C25.3862798,14.6490873 16.6143031,24.7562005 16.6143031,37.1359287 L16.6143031,37.3402362 C16.6143031,49.7191504 25.1810302,60.033013 37.5693093,60.033013 L42.9473373,60.0842933 Z" id="Fill-14" fill="#312D2A" mask="url(#mask-4)"></path>
          </g>
        </g>
      </g>
    </g>
  </g>
</svg>
