<svg xmlns="http://www.w3.org/2000/svg" viewBox="0 0 300 81.39"><defs><style>.a{fill:#f26f21;}.b{fill:#a5a85a;}</style></defs><path class="a" d="M504.82,304.28s-2.28-26.4-35.07-25c-26.84,1.11-44.57,37.64-9.94,43.77,19.6,3.48,28.85-9.89,28.85-9.89a33.11,33.11,0,0,1-10.57,1.47c-23.48-.85-26.62-21.65-13-27.36C490.47,276.63,504.82,304.28,504.82,304.28Z" transform="translate(-211.29 -279.19)"/><path class="a" d="M491.26,313.05s8.52-9.87,15.62-.73c6.92,8.9,6.11,23.57-5.39,36.8-12.51,14.38-25.63,12.79-28.86,8.28s.9-10.24,10.46-12.92,22.1-10.46,23.16-19.86c1.36-12.17-4.07-16.46-9.16-14.85-4.24,1.35-5.83,3.28-5.83,3.28Z" transform="translate(-211.29 -279.19)"/><path class="b" d="M440,348.46h14.75V345.1H443.66V327.44H440Zm-9.49-8.35h-7.24l3.6-8.41Zm-1.87-12.83h-3.42l-9.25,21.18h3.78l2.16-5.07h9.95l2.13,5.07h3.91Zm-21,17.91h-6.12v-5.77h5.85c2.92,0,4.33,1.05,4.33,2.86s-1.53,2.91-4.06,2.91m-1.08-8.89h-5v-5.59h5.31c2.38,0,3.7,1,3.7,2.7,0,2-1.59,2.89-4,2.89m.75-8.86h-9.43v21h9.73c4.69,0,7.78-2,7.78-5.79,0-2.89-1.71-4.3-4.17-5.14a5,5,0,0,0,3-4.72c0-3.3-2.67-5.37-6.91-5.37M391.3,338c0,4.12-2.91,7.45-7.09,7.45a7.21,7.21,0,0,1-7.15-7.51,7.11,7.11,0,0,1,7.09-7.45A7.21,7.21,0,0,1,391.3,338m3.88-.06a11,11,0,1,0-11,10.9,10.69,10.69,0,0,0,11-10.9m-36.95,10.54H373V345.1H361.92V327.44h-3.69ZM354.8,345v-10.6H344.06v3.86h6.45V343a10.32,10.32,0,0,1-6.09,1.91c-5.15,0-8.58-3.82-8.58-9.05,0-4.9,3.53-8.94,8.19-8.94a9.92,9.92,0,0,1,7.06,2.7l2.81-3.35a13.61,13.61,0,0,0-9.69-3.42,12.86,12.86,0,0,0-13,13.08c0,7.39,5.19,13,13.09,13A16.09,16.09,0,0,0,354.8,345m-30.42-4.86h-7.24l3.6-8.41Zm-1.86-12.83h-3.43l-9.25,21.18h3.78l2.17-5.07h9.94l2.13,5.07h3.91ZM309.27,345.1l-2.37-2.4c-1.81,1.68-3.46,2.73-6,2.73-4,0-6.94-3.36-6.94-7.51s2.91-7.45,6.94-7.45a8.39,8.39,0,0,1,5.89,2.61l2.37-2.73a11,11,0,0,0-8.23-3.28,10.88,10.88,0,0,0-.15,21.75,10.86,10.86,0,0,0,8.53-3.72m-20.43-17.66H273.25v21H289v-3.3H276.94v-5.65h10.55v-3.3H276.94v-5.47h11.9ZM266,342l-11.27-14.53h-3.42v21H255v-15l11.6,15h3.09v-21H266Zm-17.42-14.53H233v21h15.75v-3.3H236.69v-5.65h10.54v-3.3H236.69v-5.47h11.9Zm-31.85,2.39c0-1.7,1.51-3,4.11-3a11.47,11.47,0,0,1,6.84,2.59l2.38-3.35a14,14,0,0,0-9.15-3.17c-5,0-8.62,2.95-8.62,7.35,0,4.69,3,6.28,8.4,7.57,4.69,1.08,5.7,2.06,5.7,3.9s-1.73,3.2-4.47,3.2a11.59,11.59,0,0,1-8-3.28l-2.67,3.18a15.56,15.56,0,0,0,10.53,4c5.3,0,9-2.81,9-7.57,0-4.21-2.77-6.12-8.11-7.42-4.83-1.16-6-2-6-4" transform="translate(-211.29 -279.19)"/></svg>